HIERARCHY
ROOT pelvis
{
	OFFSET 0.00 0.00 0.00
	CHANNELS 6 Xposition Yposition Zposition Xrotation Yrotation Zrotation
	JOINT lfemur
	{
		OFFSET 0.00000 4.00987 0.00000
		CHANNELS 3 Xrotation Yrotation Zrotation
		JOINT ltibia
		{
			OFFSET 0.00000 0.00000 -16.96567
			CHANNELS 3 Xrotation Yrotation Zrotation
			JOINT lfoot
			{
				OFFSET 0.00000 0.00000 -15.14977
				CHANNELS 3 Xrotation Yrotation Zrotation
				JOINT ltoes
				{
					OFFSET 4.80706 0.00000 -0.34192
					CHANNELS 3 Xrotation Yrotation Zrotation
				}
			}
		}
	}
	JOINT rfemur
	{
		OFFSET 0.00000 -4.00987 0.00000
		CHANNELS 3 Xrotation Yrotation Zrotation
		JOINT rtibia
		{
			OFFSET 0.00000 0.00000 -17.37260
			CHANNELS 3 Xrotation Yrotation Zrotation
			JOINT rfoot
			{
				OFFSET 0.00000 0.00000 -14.74017
				CHANNELS 3 Xrotation Yrotation Zrotation
				JOINT rtoes
				{
					OFFSET 4.34786 0.00000 -1.10103
					CHANNELS 3 Xrotation Yrotation Zrotation
				}
			}
		}
	}
	JOINT lowerback
	{
		OFFSET -1.96850 0.00000 4.19271
		CHANNELS 3 Xrotation Yrotation Zrotation
		JOINT upperback
		{
			OFFSET 0.46383 0.00000 7.28365
			CHANNELS 3 Xrotation Yrotation Zrotation
			JOINT lclavicle
			{
				OFFSET 0.00000 0.00000 8.84290
				CHANNELS 3 Xrotation Yrotation Zrotation
				JOINT lhumerus
				{
					OFFSET 0.00000 5.32652 -2.91730
					CHANNELS 3 Xrotation Yrotation Zrotation
					JOINT lradius
					{
						OFFSET 0.00000 0.00000 -11.04679
						CHANNELS 3 Xrotation Yrotation Zrotation
						JOINT lhand
						{
							OFFSET 0.00000 0.00000 -7.95329
							CHANNELS 3 Xrotation Yrotation Zrotation
						}
					}
				}
			}
			JOINT rclavicle
			{
				OFFSET 0.00000 0.00000 8.84290
				CHANNELS 3 Xrotation Yrotation Zrotation
				JOINT rhumerus
				{
					OFFSET 0.00000 -5.91097 -2.78771
					CHANNELS 3 Xrotation Yrotation Zrotation
					JOINT rradius
					{
						OFFSET 0.00000 0.00000 -11.28954
						CHANNELS 3 Xrotation Yrotation Zrotation
						JOINT rhand
						{
							OFFSET 0.00000 0.00000 -7.95361
							CHANNELS 3 Xrotation Yrotation Zrotation
						}
					}
				}
			}
			JOINT LowerNeck
			{
				OFFSET 0.00000 0.00000 8.84290
				CHANNELS 3 Xrotation Yrotation Zrotation
				JOINT Neck
				{
					OFFSET -0.14998 -1.07471 3.07123
					CHANNELS 3 Xrotation Yrotation Zrotation
				}
			}
		}
	}
}
MOTION
Frames: 13
Frame Time: 0.008342
 38.3095 -99.5457 34.6891 9.1903 -3.0188 83.2876 -0.9453 8.1148 -9.2943 0.0000 9.6228 24.9949 -0.4347 -0.8244 -1.6285 0.0000 -14.8073 0.0000 5.0645 8.1746 21.8155 0.0000 9.2829 -31.4846 1.3745 -5.8587 5.2511 -0.0000 -3.7754 -0.0000 -0.8405 -3.5968 1.4647 0.0393 31.3361 0.7679 -0.1812 -0.0000 -2.7708 17.3916 -25.3949 -10.3698 -0.0000 -10.7400 -16.4433 -20.3288 2.1243 -0.0000 2.6622 0.0000 5.4579 -18.9047 -23.0364 13.0370 -0.0000 -17.2765 13.2145 15.7872 5.1882 0.0000 2.8759 -4.1585 3.1727 -8.3303 -37.9549 -19.6148
 38.3137 -99.5457 34.6894 9.2108 -3.0176 83.2790 -0.9491 8.1646 -9.3824 -0.0000 9.5705 25.0493 -0.4235 -0.8356 -1.5867 0.0000 -14.4468 -0.0000 5.0879 8.2350 21.8790 0.0000 9.3203 -31.0411 1.1600 -6.0746 4.4324 0.0000 -3.7892 0.0000 -0.8474 -3.6028 1.4674 0.0070 31.3475 0.8191 -0.1553 -0.0000 -2.7888 17.3678 -25.4612 -10.4167 0.0000 -10.5886 -16.4365 -20.3531 2.0243 -0.0000 2.6285 0.0000 5.5623 -18.9173 -22.8562 12.9608 -0.0000 -17.5329 13.3445 15.6635 5.2382 0.0000 2.9285 -4.1891 3.2703 -8.3687 -37.9012 -19.6629
 38.3137 -99.5457 34.6894 9.2108 -3.0176 83.2790 -0.9491 8.1646 -9.3824 -0.0000 9.5705 25.0493 -0.4235 -0.8356 -1.5867 0.0000 -14.4468 -0.0000 5.0879 8.2350 21.8790 0.0000 9.3203 -31.0411 1.1600 -6.0746 4.4324 0.0000 -3.7892 0.0000 -0.8474 -3.6028 1.4674 0.0070 31.3475 0.8191 -0.1553 -0.0000 -2.7888 17.3678 -25.4612 -10.4167 0.0000 -10.5886 -16.4365 -20.3531 2.0243 -0.0000 2.6285 0.0000 5.5623 -18.9173 -22.8562 12.9608 -0.0000 -17.5329 13.3445 15.6635 5.2382 0.0000 2.9285 -4.1891 3.2703 -8.3687 -37.9012 -19.6629
 38.3137 -99.5457 34.6894 9.2108 -3.0176 83.2790 -0.9491 8.1646 -9.3824 -0.0000 9.5705 25.0493 -0.4235 -0.8356 -1.5867 0.0000 -14.4468 -0.0000 5.0879 8.2350 21.8790 0.0000 9.3203 -31.0411 1.1600 -6.0746 4.4324 0.0000 -3.7892 0.0000 -0.8474 -3.6028 1.4674 0.0070 31.3475 0.8191 -0.1553 -0.0000 -2.7888 17.3678 -25.4612 -10.4167 0.0000 -10.5886 -16.4365 -20.3531 2.0243 -0.0000 2.6285 0.0000 5.5623 -18.9173 -22.8562 12.9608 -0.0000 -17.5329 13.3445 15.6635 5.2382 0.0000 2.9285 -4.1891 3.2703 -8.3687 -37.9012 -19.6629
 38.3234 -99.5401 34.6899 9.2247 -3.0105 83.3136 -0.9337 8.2097 -9.4350 -0.0000 9.5220 25.0301 -0.4168 -0.8293 -1.5615 0.0000 -14.3830 -0.0000 5.0959 8.2740 21.8697 0.0000 9.2959 -31.0978 1.1628 -6.0765 4.4429 0.0000 -3.7972 -0.0000 -0.8557 -3.6133 1.4872 0.0010 31.3312 0.7974 -0.1357 0.0000 -2.7933 17.3470 -25.4218 -10.3343 0.0000 -10.5704 -16.5424 -20.2691 1.9523 -0.0000 2.6192 0.0000 5.5428 -18.8602 -22.9174 13.0946 0.0000 -17.3839 13.2308 15.7467 5.2711 0.0000 3.0361 -4.1365 3.2878 -8.3590 -38.0462 -19.3875
 38.3234 -99.5401 34.6899 9.2247 -3.0105 83.3136 -0.9337 8.2097 -9.4350 -0.0000 9.5220 25.0301 -0.4168 -0.8293 -1.5615 0.0000 -14.3830 -0.0000 5.0959 8.2740 21.8697 0.0000 9.2959 -31.0978 1.1628 -6.0765 4.4429 0.0000 -3.7972 -0.0000 -0.8557 -3.6133 1.4872 0.0010 31.3312 0.7974 -0.1357 0.0000 -2.7933 17.3470 -25.4218 -10.3343 0.0000 -10.5704 -16.5424 -20.2691 1.9523 -0.0000 2.6192 0.0000 5.5428 -18.8602 -22.9174 13.0946 0.0000 -17.3839 13.2308 15.7467 5.2711 0.0000 3.0361 -4.1365 3.2878 -8.3590 -38.0462 -19.3875
 38.3307 -99.5399 34.6914 9.2314 -3.0095 83.3162 -0.9286 8.2184 -9.5099 -0.0000 9.5176 25.0756 -0.4075 -0.8057 -1.5267 0.0000 -14.5059 -0.0000 5.0995 8.2868 21.8108 0.0000 9.2769 -31.0651 1.1735 -6.0666 4.4839 0.0000 -3.8382 -0.0000 -0.8588 -3.6120 1.5044 -0.0183 31.3288 0.8264 -0.1294 -0.0000 -2.7864 17.3491 -25.4270 -10.3366 -0.0000 -10.5957 -16.4802 -20.3452 2.0626 -0.0000 2.6140 -0.0000 5.5648 -18.8500 -22.8983 13.0748 -0.0000 -17.3955 13.2499 15.7373 5.2564 0.0000 2.9924 -4.2153 3.2843 -8.1627 -38.0260 -19.1808
 38.3307 -99.5399 34.6914 9.2314 -3.0095 83.3162 -0.9286 8.2184 -9.5099 -0.0000 9.5176 25.0756 -0.4075 -0.8057 -1.5267 0.0000 -14.5059 -0.0000 5.0995 8.2868 21.8108 0.0000 9.2769 -31.0651 1.1735 -6.0666 4.4839 0.0000 -3.8382 -0.0000 -0.8588 -3.6120 1.5044 -0.0183 31.3288 0.8264 -0.1294 -0.0000 -2.7864 17.3491 -25.4270 -10.3366 -0.0000 -10.5957 -16.4802 -20.3452 2.0626 -0.0000 2.6140 -0.0000 5.5648 -18.8500 -22.8983 13.0748 -0.0000 -17.3955 13.2499 15.7373 5.2564 0.0000 2.9924 -4.2153 3.2843 -8.1627 -38.0260 -19.1808
 38.3307 -99.5399 34.6914 9.2314 -3.0095 83.3162 -0.9286 8.2184 -9.5099 -0.0000 9.5176 25.0756 -0.4075 -0.8057 -1.5267 0.0000 -14.5059 -0.0000 5.0995 8.2868 21.8108 0.0000 9.2769 -31.0651 1.1735 -6.0666 4.4839 0.0000 -3.8382 -0.0000 -0.8588 -3.6120 1.5044 -0.0183 31.3288 0.8264 -0.1294 -0.0000 -2.7864 17.3491 -25.4270 -10.3366 -0.0000 -10.5957 -16.4802 -20.3452 2.0626 -0.0000 2.6140 -0.0000 5.5648 -18.8500 -22.8983 13.0748 -0.0000 -17.3955 13.2499 15.7373 5.2564 0.0000 2.9924 -4.2153 3.2843 -8.1627 -38.0260 -19.1808
 38.3406 -99.5394 34.6936 9.2386 -3.0019 83.3442 -0.9194 8.2279 -9.5874 -0.0000 9.5121 25.1204 -0.4064 -0.7964 -1.5224 0.0000 -14.5573 0.0000 5.1103 8.2998 21.7631 0.0000 9.2700 -31.0426 1.1728 -6.0672 4.4814 0.0000 -3.8274 0.0000 -0.8634 -3.6097 1.5218 -0.0418 31.3280 0.8444 -0.1297 -0.0000 -2.7777 17.3573 -25.4304 -10.3421 0.0000 -10.6039 -16.5247 -20.2803 2.0362 -0.0000 2.5978 -0.0000 5.5625 -18.8142 -22.8758 13.1150 -0.0000 -17.4533 13.2515 15.7234 5.2541 0.0000 3.0254 -4.3025 3.2576 -8.0761 -38.0530 -18.9491
 38.3406 -99.5394 34.6936 9.2386 -3.0019 83.3442 -0.9194 8.2279 -9.5874 -0.0000 9.5121 25.1204 -0.4064 -0.7964 -1.5224 0.0000 -14.5573 0.0000 5.1103 8.2998 21.7631 0.0000 9.2700 -31.0426 1.1728 -6.0672 4.4814 0.0000 -3.8274 0.0000 -0.8634 -3.6097 1.5218 -0.0418 31.3280 0.8444 -0.1297 -0.0000 -2.7777 17.3573 -25.4304 -10.3421 0.0000 -10.6039 -16.5247 -20.2803 2.0362 -0.0000 2.5978 -0.0000 5.5625 -18.8142 -22.8758 13.1150 -0.0000 -17.4533 13.2515 15.7234 5.2541 0.0000 3.0254 -4.3025 3.2576 -8.0761 -38.0530 -18.9491
 38.3482 -99.5391 34.6939 9.2497 -2.9970 83.3720 -0.9099 8.2432 -9.6419 0.0000 9.5014 25.1584 -0.4086 -0.7889 -1.5307 0.0000 -14.5099 -0.0000 5.1215 8.3157 21.7466 0.0000 9.2660 -31.0301 1.1652 -6.0670 4.4520 0.0000 -3.8014 0.0000 -0.8711 -3.6128 1.5288 -0.0569 31.3291 0.8521 -0.1225 0.0000 -2.7793 17.3674 -25.4428 -10.3649 0.0000 -10.5813 -16.5115 -20.2944 2.0363 -0.0000 2.5819 -0.0000 5.5701 -18.7815 -22.8642 13.1629 0.0000 -17.4574 13.2611 15.7254 5.2663 -0.0000 3.0992 -4.3224 3.2756 -8.1496 -38.0762 -18.8933
 38.3482 -99.5391 34.6939 9.2497 -2.9970 83.3720 -0.9099 8.2432 -9.6419 0.0000 9.5014 25.1584 -0.4086 -0.7889 -1.5307 0.0000 -14.5099 -0.0000 5.1215 8.3157 21.7466 0.0000 9.2660 -31.0301 1.1652 -6.0670 4.4520 0.0000 -3.8014 0.0000 -0.8711 -3.6128 1.5288 -0.0569 31.3291 0.8521 -0.1225 0.0000 -2.7793 17.3674 -25.4428 -10.3649 0.0000 -10.5813 -16.5115 -20.2944 2.0363 -0.0000 2.5819 -0.0000 5.5701 -18.7815 -22.8642 13.1629 0.0000 -17.4574 13.2611 15.7254 5.2663 -0.0000 3.0992 -4.3224 3.2756 -8.1496 -38.0762 -18.8933
